  0
SECTION
  2
HEADER
  9
$ACADVER
  1
AC1014
  9
$HANDSEED
  5
FFFF
  9
$MEASUREMENT
 70
     1
  0
ENDSEC
  0
SECTION
  2
TABLES
  0
TABLE
  2
VPORT
  5
8
330
0
100
AcDbSymbolTable
 70
     4
  0
VPORT
  5
2E
330
8
100
AcDbSymbolTableRecord
100
AcDbViewportTableRecord
  2
*ACTIVE
 70
     0
 10
0.0
 20
0.0
 11
1.0
 21
1.0
 12
210.0
 22
148.5
 13
0.0
 23
0.0
 14
10.0
 24
10.0
 15
10.0
 25
10.0
 16
0.0
 26
0.0
 36
1.0
 17
0.0
 27
0.0
 37
0.0
 40
341.0
 41
1.24
 42
50.0
 43
0.0
 44
0.0
 50
0.0
 51
0.0
 71
     0
 72
   100
 73
     1
 74
     3
 75
     0
 76
     0
 77
     0
 78
     0
  0
ENDTAB
  0
TABLE
  2
LTYPE
  5
5
330
0
100
AcDbSymbolTable
 70
     1
  0
LTYPE
  5
14
330
5
100
AcDbSymbolTableRecord
100
AcDbLinetypeTableRecord
  2
BYBLOCK
 70
     0
  3

 72
    65
 73
     0
 40
0.0
  0
LTYPE
  5
15
330
5
100
AcDbSymbolTableRecord
100
AcDbLinetypeTableRecord
  2
BYLAYER
 70
     0
  3

 72
    65
 73
     0
 40
0.0
  0
LTYPE
  5
16
330
5
100
AcDbSymbolTableRecord
100
AcDbLinetypeTableRecord
  2
CONTINUOUS
 70
     0
  3
Solid line
 72
    65
 73
     0
 40
0.0
  0
ENDTAB
  0
TABLE
  2
LAYER
  5
2
100
AcDbSymbolTable
 70
1
  0
LAYER
  5
50
100
AcDbSymbolTableRecord
100
AcDbLayerTableRecord
  2
0
 70
0
  6
CONTINUOUS
  0
ENDTAB
  0
TABLE
  2
STYLE
  5
3
330
0
100
AcDbSymbolTable
 70
     1
  0
STYLE
  5
11
330
3
100
AcDbSymbolTableRecord
100
AcDbTextStyleTableRecord
  2
STANDARD
 70
     0
 40
0.0
 41
1.0
 50
0.0
 71
     0
 42
2.5
  3
txt
  4

  0
ENDTAB
  0
TABLE
  2
VIEW
  5
6
330
0
100
AcDbSymbolTable
 70
     0
  0
ENDTAB
  0
TABLE
  2
UCS
  5
7
330
0
100
AcDbSymbolTable
 70
     0
  0
ENDTAB
  0
TABLE
  2
APPID
  5
9
330
0
100
AcDbSymbolTable
 70
     2
  0
APPID
  5
12
330
9
100
AcDbSymbolTableRecord
100
AcDbRegAppTableRecord
  2
ACAD
 70
     0
  0
ENDTAB
  0
TABLE
  2
DIMSTYLE
  5
A
330
0
100
AcDbSymbolTable
 70
     1
  0
DIMSTYLE
105
27
330
A
100
AcDbSymbolTableRecord
100
AcDbDimStyleTableRecord
  2
ISO-25
 70
     0
  3

  4

  5

  6

  7

 40
1.0
 41
2.5
 42
0.625
 43
3.75
 44
1.25
 45
0.0
 46
0.0
 47
0.0
 48
0.0
140
2.5
141
2.5
142
0.0
143
0.03937007874016
144
1.0
145
0.0
146
1.0
147
0.625
 71
     0
 72
     0
 73
     0
 74
     0
 75
     0
 76
     0
 77
     1
 78
     8
170
     0
171
     3
172
     1
173
     0
174
     0
175
     0
176
     0
177
     0
178
     0
270
     2
271
     2
272
     2
273
     2
274
     3
340
11
275
     0
280
     0
281
     0
282
     0
283
     0
284
     8
285
     0
286
     0
287
     3
288
     0
  0
ENDTAB
  0
TABLE
  2
BLOCK_RECORD
  5
1
330
0
100
AcDbSymbolTable
 70
     1
  0
BLOCK_RECORD
  5
1F
330
1
100
AcDbSymbolTableRecord
100
AcDbBlockTableRecord
  2
*MODEL_SPACE
  0
BLOCK_RECORD
  5
1B
330
1
100
AcDbSymbolTableRecord
100
AcDbBlockTableRecord
  2
*PAPER_SPACE
  0
ENDTAB
  0
ENDSEC
  0
SECTION
  2
BLOCKS
  0
BLOCK
  5
20
330
1F
100
AcDbEntity
  8
0
100
AcDbBlockBegin
  2
*MODEL_SPACE
 70
     0
 10
0.0
 20
0.0
 30
0.0
  3
*MODEL_SPACE
  1

  0
ENDBLK
  5
21
330
1F
100
AcDbEntity
  8
0
100
AcDbBlockEnd
  0
BLOCK
  5
1C
330
1B
100
AcDbEntity
 67
     1
  8
0
100
AcDbBlockBegin
  2
*PAPER_SPACE
  1

  0
ENDBLK
  5
1D
330
1B
100
AcDbEntity
 67
     1
  8
0
100
AcDbBlockEnd
  0
ENDSEC
  0
SECTION
  2
ENTITIES
  0
LWPOLYLINE
  5
100
100
AcDbEntity
  8
0
 62
7
100
AcDbPolyline
 90
17
 70
0
 10
32.220969
 20
1.144152
 30
0.0
 10
36.560571
 20
6.050280
 30
0.0
 10
42.883060
 20
4.541496
 30
0.0
 10
51.535730
 20
4.435160
 30
0.0
 10
55.358191
 20
10.448944
 30
0.0
 10
61.823682
 20
10.192128
 30
0.0
 10
70.097614
 20
11.333216
 30
0.0
 10
72.786682
 20
17.410328
 30
0.0
 10
78.575061
 20
18.507704
 30
0.0
 10
86.466776
 20
21.242816
 30
0.0
 10
87.645256
 20
28.425616
 30
0.0
 10
93.389792
 20
30.667272
 30
0.0
 10
100.480448
 20
35.627359
 30
0.0
 10
100.298912
 20
41.858854
 30
0.0
 10
106.675480
 20
46.540335
 30
0.0
 10
114.068640
 20
52.059500
 30
0.0
 10
113.160632
 20
59.662478
 30
0.0
  0
LWPOLYLINE
  5
101
100
AcDbEntity
  8
0
 62
7
100
AcDbPolyline
 90
2
 70
0
 10
34.403593
 20
3.611712
 30
0.0
 10
28.577704
 20
8.744592
 30
0.0
  0
LWPOLYLINE
  5
102
100
AcDbEntity
  8
0
 62
7
100
AcDbPolyline
 90
2
 70
0
 10
39.703842
 20
5.300176
 30
0.0
 10
41.447967
 20
12.533592
 30
0.0
  0
LWPOLYLINE
  5
103
100
AcDbEntity
  8
0
 62
7
100
AcDbPolyline
 90
2
 70
0
 10
53.454086
 20
7.453264
 30
0.0
 10
47.513898
 20
11.210480
 30
0.0
  0
LWPOLYLINE
  5
104
100
AcDbEntity
  8
0
 62
7
100
AcDbPolyline
 90
2
 70
0
 10
58.569408
 20
10.321392
 30
0.0
 10
58.866486
 20
17.320024
 30
0.0
  0
LWPOLYLINE
  5
105
100
AcDbEntity
  8
0
 62
7
100
AcDbPolyline
 90
2
 70
0
 10
71.455822
 20
14.402672
 30
0.0
 10
65.157135
 20
17.149728
 30
0.0
  0
LWPOLYLINE
  5
106
100
AcDbEntity
  8
0
 62
7
100
AcDbPolyline
 90
2
 70
0
 10
75.635687
 20
17.950448
 30
0.0
 10
74.367767
 20
24.876256
 30
0.0
  0
LWPOLYLINE
  5
107
100
AcDbEntity
  8
0
 62
7
100
AcDbPolyline
 90
2
 70
0
 10
87.057872
 20
24.845544
 30
0.0
 10
80.340608
 20
25.932184
 30
0.0
  0
LWPOLYLINE
  5
108
100
AcDbEntity
  8
0
 62
7
100
AcDbPolyline
 90
2
 70
0
 10
90.495752
 20
29.537944
 30
0.0
 10
87.871920
 20
36.301443
 30
0.0
  0
LWPOLYLINE
  5
109
100
AcDbEntity
  8
0
 62
7
100
AcDbPolyline
 90
2
 70
0
 10
100.387688
 20
38.811432
 30
0.0
 10
92.898312
 20
38.531009
 30
0.0
  0
LWPOLYLINE
  5
10a
100
AcDbEntity
  8
0
 62
7
100
AcDbPolyline
 90
2
 70
0
 10
103.450032
 20
44.172310
 30
0.0
 10
99.081184
 20
50.198947
 30
0.0
  0
LWPOLYLINE
  5
10b
100
AcDbEntity
  8
0
 62
7
100
AcDbPolyline
 90
17
 70
0
 10
109.234715
 20
68.017901
 30
0.0
 10
102.816082
 20
69.323043
 30
0.0
 10
100.961483
 20
75.552871
 30
0.0
 10
96.727238
 20
83.099471
 30
0.0
 10
89.607918
 20
83.402928
 30
0.0
 10
86.597582
 20
89.130615
 30
0.0
 10
81.472405
 20
95.725506
 30
0.0
 10
74.864937
 20
95.015752
 30
0.0
 10
71.020392
 20
99.479946
 30
0.0
 10
64.705858
 20
104.946816
 30
0.0
 10
57.896131
 20
102.376010
 30
0.0
 10
53.082532
 20
106.230096
 30
0.0
 10
45.241642
 20
109.890741
 30
0.0
 10
39.935778
 20
106.617779
 30
0.0
 10
32.693212
 20
109.799308
 30
0.0
 10
24.216895
 20
113.442390
 30
0.0
 10
18.086527
 20
108.854542
 30
0.0
  0
LWPOLYLINE
  5
10c
100
AcDbEntity
  8
0
 62
7
100
AcDbPolyline
 90
2
 70
0
 10
106.006434
 20
68.674329
 30
0.0
 10
104.474173
 20
61.062522
 30
0.0
  0
LWPOLYLINE
  5
10d
100
AcDbEntity
  8
0
 62
7
100
AcDbPolyline
 90
2
 70
0
 10
101.894056
 20
72.420247
 30
0.0
 10
94.757672
 20
70.313996
 30
0.0
  0
LWPOLYLINE
  5
10e
100
AcDbEntity
  8
0
 62
7
100
AcDbPolyline
 90
2
 70
0
 10
93.154306
 20
83.251764
 30
0.0
 10
92.870555
 20
76.228802
 30
0.0
  0
LWPOLYLINE
  5
10f
100
AcDbEntity
  8
0
 62
7
100
AcDbPolyline
 90
2
 70
0
 10
88.112773
 20
86.247699
 30
0.0
 10
81.903241
 20
83.005660
 30
0.0
  0
LWPOLYLINE
  5
110
100
AcDbEntity
  8
0
 62
7
100
AcDbPolyline
 90
2
 70
0
 10
78.135074
 20
95.367020
 30
0.0
 10
78.905397
 20
88.538670
 30
0.0
  0
LWPOLYLINE
  5
111
100
AcDbEntity
  8
0
 62
7
100
AcDbPolyline
 90
2
 70
0
 10
72.972677
 20
97.213002
 30
0.0
 10
67.608711
 20
92.652047
 30
0.0
  0
LWPOLYLINE
  5
112
100
AcDbEntity
  8
0
 62
7
100
AcDbPolyline
 90
2
 70
0
 10
61.290256
 20
103.657356
 30
0.0
 10
63.707830
 20
97.296715
 30
0.0
  0
LWPOLYLINE
  5
113
100
AcDbEntity
  8
0
 62
7
100
AcDbPolyline
 90
2
 70
0
 10
55.507578
 20
104.288448
 30
0.0
 10
50.962132
 20
98.634393
 30
0.0
  0
LWPOLYLINE
  5
114
100
AcDbEntity
  8
0
 62
7
100
AcDbPolyline
 90
2
 70
0
 10
42.530534
 20
108.218372
 30
0.0
 10
46.518076
 20
101.872593
 30
0.0
  0
LWPOLYLINE
  5
115
100
AcDbEntity
  8
0
 62
7
100
AcDbPolyline
 90
2
 70
0
 10
36.356705
 20
108.190000
 30
0.0
 10
33.321909
 20
101.393148
 30
0.0
  0
LWPOLYLINE
  5
116
100
AcDbEntity
  8
0
 62
7
100
AcDbPolyline
 90
17
 70
0
 10
12.802692
 20
101.280440
 30
0.0
 10
14.881722
 20
95.069170
 30
0.0
 10
10.413833
 20
90.348126
 30
0.0
 10
5.995408
 20
82.907863
 30
0.0
 10
9.292267
 20
76.590622
 30
0.0
 10
5.837113
 20
71.119751
 30
0.0
 10
2.688358
 20
63.383772
 30
0.0
 10
6.606757
 20
58.016414
 30
0.0
 10
4.662923
 20
52.454843
 30
0.0
 10
3.085742
 20
44.252861
 30
0.0
 10
8.716989
 20
39.640868
 30
0.0
 10
7.786052
 20
33.545126
 30
0.0
 10
8.536286
 20
24.924394
 30
0.0
 10
14.023686
 20
21.965861
 30
0.0
 10
14.889684
 20
14.102851
 30
0.0
 10
15.972841
 20
4.940604
 30
0.0
 10
23.011217
 20
1.925473
 30
0.0
  0
LWPOLYLINE
  5
117
100
AcDbEntity
  8
0
 62
7
100
AcDbPolyline
 90
2
 70
0
 10
13.848350
 20
98.156452
 30
0.0
 10
21.206499
 20
100.635380
 30
0.0
  0
LWPOLYLINE
  5
118
100
AcDbEntity
  8
0
 62
7
100
AcDbPolyline
 90
2
 70
0
 10
12.660478
 20
92.722070
 30
0.0
 10
18.052737
 20
87.594905
 30
0.0
  0
LWPOLYLINE
  5
119
100
AcDbEntity
  8
0
 62
7
100
AcDbPolyline
 90
2
 70
0
 10
7.649985
 20
79.737466
 30
0.0
 10
13.873923
 20
83.003211
 30
0.0
  0
LWPOLYLINE
  5
11a
100
AcDbEntity
  8
0
 62
7
100
AcDbPolyline
 90
2
 70
0
 10
7.576195
 20
73.873403
 30
0.0
 10
13.488650
 20
70.116810
 30
0.0
  0
LWPOLYLINE
  5
11b
100
AcDbEntity
  8
0
 62
7
100
AcDbPolyline
 90
2
 70
0
 10
4.667481
 20
60.672801
 30
0.0
 10
10.195844
 20
64.754096
 30
0.0
  0
LWPOLYLINE
  5
11c
100
AcDbEntity
  8
0
 62
7
100
AcDbPolyline
 90
2
 70
0
 10
5.650012
 20
55.279043
 30
0.0
 10
12.281898
 20
52.914190
 30
0.0
  0
LWPOLYLINE
  5
11d
100
AcDbEntity
  8
0
 62
7
100
AcDbPolyline
 90
2
 70
0
 10
5.910248
 20
41.939593
 30
0.0
 10
10.209938
 20
47.213594
 30
0.0
  0
LWPOLYLINE
  5
11e
100
AcDbEntity
  8
0
 62
7
100
AcDbPolyline
 90
2
 70
0
 10
8.255046
 20
36.616102
 30
0.0
 10
15.424324
 20
35.506657
 30
0.0
  0
LWPOLYLINE
  5
11f
100
AcDbEntity
  8
0
 62
7
100
AcDbPolyline
 90
2
 70
0
 10
11.340154
 20
23.412690
 30
0.0
 10
14.841988
 20
30.038891
 30
0.0
  0
LWPOLYLINE
  5
120
100
AcDbEntity
  8
0
 62
7
100
AcDbPolyline
 90
2
 70
0
 10
14.451639
 20
18.080183
 30
0.0
 10
21.855283
 20
18.850398
 30
0.0
  0
ENDSEC
  0
SECTION
  2
OBJECTS
  0
DICTIONARY
  5
C
330
0
100
AcDbDictionary
  3
ACAD_GROUP
350
D
  3
ACAD_MLINESTYLE
350
17
  0
DICTIONARY
  5
D
330
C
100
AcDbDictionary
  0
DICTIONARY
  5
1A
330
C
100
AcDbDictionary
  0
DICTIONARY
  5
17
330
C
100
AcDbDictionary
  3
STANDARD
350
18
  0
DICTIONARY
  5
19
330
C
100
AcDbDictionary
  0
ENDSEC
  0
EOF
