<?xml version="1.0" encoding="UTF-8" standalone="no"?>
<svg
   xmlns:dc="http://purl.org/dc/elements/1.1/"
   xmlns:cc="http://creativecommons.org/ns#"
   xmlns:rdf="http://www.w3.org/1999/02/22-rdf-syntax-ns#"
   xmlns:svg="http://www.w3.org/2000/svg"
   xmlns="http://www.w3.org/2000/svg"
   xmlns:sodipodi="http://sodipodi.sourceforge.net/DTD/sodipodi-0.dtd"
   xmlns:inkscape="http://www.inkscape.org/namespaces/inkscape"
   height="142.51746"
   version="1.1"
   width="142.64854"
   id="svg2"
   inkscape:version="0.91 r13725"
   sodipodi:docname="6.svg">
  <metadata
     id="metadata2108">
    <rdf:RDF>
      <cc:Work
         rdf:about="">
        <dc:format>image/svg+xml</dc:format>
        <dc:type
           rdf:resource="http://purl.org/dc/dcmitype/StillImage" />
        <dc:title />
      </cc:Work>
    </rdf:RDF>
  </metadata>
  <sodipodi:namedview
     pagecolor="#ffffff"
     bordercolor="#666666"
     borderopacity="1"
     objecttolerance="10"
     gridtolerance="10"
     guidetolerance="10"
     inkscape:pageopacity="0"
     inkscape:pageshadow="2"
     inkscape:window-width="1920"
     inkscape:window-height="1003"
     id="namedview2106"
     showgrid="false"
     fit-margin-top="0"
     fit-margin-left="0"
     fit-margin-right="0"
     fit-margin-bottom="0"
     inkscape:object-nodes="true"
     inkscape:snap-intersection-paths="true"
     inkscape:zoom="3.9333333"
     inkscape:cx="8.0282026"
     inkscape:cy="68.414831"
     inkscape:window-x="-9"
     inkscape:window-y="-9"
     inkscape:window-maximized="1"
     inkscape:current-layer="svg2" />
  <defs
     id="defs4" />
  <g
     id="g5458"
     style="stroke-width:0.142;stroke-miterlimit:4;stroke-dasharray:none" />
  <g
     id="g5471"
     transform="matrix(-0.5,-0.8660254,0.8660254,-0.5,34.49634,162.91894)"
     style="stroke-width:0.142;stroke-miterlimit:4;stroke-dasharray:none" />
  <g
     transform="matrix(-0.5,0.8660254,-0.8660254,-0.5,158.32663,51.580323)"
     id="g5495"
     style="stroke-width:0.142;stroke-miterlimit:4;stroke-dasharray:none">
    <path
       id="path5517"
       style="fill:none;fill-rule:evenodd;stroke:#000000;stroke-width:0.142;stroke-linecap:butt;stroke-linejoin:miter;stroke-opacity:1;stroke-miterlimit:4;stroke-dasharray:none"
       d="m 129.31254,87.302072 -5.46106,-7.533296 m 1.63313,14.234394 -9.36172,0.350529 m -3.0032,11.241331 -3.27979,-8.454374 m -1.01756,14.319874 -8.39658,-1.3583 m -5.881151,9.97717 -1.5849,-8.65726 m -3.639932,13.09198 -7.873358,-3.43382 m -8.234659,8.53542 0.371347,-8.74829 m -6.7655,12.33345 -7.425235,-4.69652 m -9.76257,7.38788 2.180157,-9.04177 m -8.805468,11.15235 -7.282361,-6.4161 m 4.554081,9.50055 5.424503,-6.13266 7.903111,1.88598 10.815837,0.13292 4.778077,-7.51723 8.081863,0.32102 10.342415,-1.42636 3.361336,-7.59639 7.235473,-1.37172 9.864644,-3.41889 1.4731,-8.9785 7.18067,-2.80207 8.86332,-6.200109 -0.22692,-7.789368 7.97071,-5.851852 9.24145,-6.898956 -1.13501,-9.503723 M 18.075134,119.90778 27.32969,118.94501 m -13.143912,-5.70287 4.377293,-8.28275 m -8.233678,-8.221511 8.961598,1.386806 M 7.398396,90.083515 12.773008,83.491013 M 7.0731011,73.409202 15.362958,76.365268 M 5.8449369,66.667005 12.755391,61.565387 M 9.4808301,50.166253 16.871398,54.861994 M 9.5730669,42.836174 17.35299,38.753992 m -1.516807,-12.148574 6.740324,6.408956 M 17.321023,19.81244 26.518709,16.713781 m -10.504758,-0.806325 2.598788,7.764087 -5.584862,5.901305 -5.523031,9.30033 4.121074,7.896551 -4.3189433,6.838588 -3.9359434,9.669975 4.8979987,6.709197 -2.4297921,6.951963 -1.9714764,10.252478 7.0390595,5.764992 -1.1636715,7.619678 0.9377915,10.77591 6.859251,3.69817 1.082498,9.82876 1.353946,11.45281 8.79797,3.76892 M 45.442987,7.2660644 41.649492,15.762129 M 53.160273,7.2306001 58.1447,15.162823 m 11.236879,-3.019818 -5.681808,7.067568 m 12.910155,-6.278704 3.021967,7.950802 m 11.581059,0.104641 -6.704957,5.701194 m 13.157953,-3.393717 0.962904,8.535438 m 11.509218,2.863714 -7.76191,4.052549 m 14.06383,-0.30763 -0.35469,8.778702 m 11.27938,4.760694 -8.92048,2.632813 m 14.06095,2.049584 -1.91533,9.51476 m 5.95068,-8.694225 -8.02329,-1.631427 -2.31825,-7.787285 -5.29281,-9.43325 -8.89915,-0.379321 -3.76292,-7.159608 -6.40647,-8.243615 -8.259333,0.887193 -4.805681,-5.580243 -7.893168,-6.833588 -8.512159,3.213508 L 66.35027,9.7159447 56.549158,5.1401389 49.916828,9.2313414 40.86362,5.2544301 30.268224,0.7005776 22.605263,6.4353866 m 44.183076,66.2265044 3.92223,0.784927 m -2.961216,2.056983 -0.961014,-2.84191 m 3.92223,0.784927 -2.961216,2.056983 m -1.535143,-6.032725 2.073576,-2.168014 m 1.812206,3.11703 -3.885782,-0.949016 m 2.073576,-2.168014 1.812204,3.117031 m -5.043757,3.759297 0.840097,2.879971 m -3.605538,0.01008 2.765441,-2.890046 m 0.840097,2.879971 -3.605538,0.01008 m 1.74399,-8.340037 -1.280773,-3.78941 m 3.261777,1.536496 -1.981004,2.252914 m -1.280773,-3.78941 3.261777,1.536496 m -4.010685,6.604088 -2.642659,3.002721 m -0.298659,-3.59316 2.941318,0.590439 m -2.642659,3.002721 -0.298659,-3.59316 m 2.494066,-1.669318 -2.914067,-0.712885 m 1.794516,-3.12725 1.119551,3.840135 m -2.914067,-0.712885 1.794516,-3.12725 m 81.012942,0.935284 -10.86142,-1.740552 m 5.95068,-8.694225 4.91074,10.434777 m -10.86142,-1.740552 5.95068,-8.694225 m -4.35443,16.373673 10.39744,3.59075 m -9.25363,6.882625 -1.14381,-10.473375 m 10.39744,3.59075 -9.25363,6.882625 m -56.317735,-11.398424 4.84977,1.216439 m -4.448303,3.348519 -0.401467,-4.564958 m 4.84977,1.216439 -4.448303,3.348519 m 3.867726,-7.168195 -4.790841,-1.431037 m 2.67657,-3.719681 2.114271,5.150718 m -4.790841,-1.431037 2.67657,-3.719681 M 74.21702,79.519498 70.625747,77.049124 m 2.95379,-2.067647 0.637483,4.538021 m -3.591273,-2.470374 2.95379,-2.067647 M 70.451661,64.756419 74.808888,64.63554 m -3.002259,3.462151 -1.354968,-3.341272 m 4.357227,-0.120879 -3.002259,3.462151 m 17.997379,5.816236 6.79766,1.670863 m -5.816933,4.812823 -0.980727,-6.483686 m 6.79766,1.670863 -5.816933,4.812823 m 4.873675,-10.31465 -6.712706,-1.98484 m 4.116312,-5.104498 2.596394,7.089338 m -6.712706,-1.98484 4.116312,-5.104498 m -6.158721,19.668701 -5.496511,-2.96451 m 4.338321,-3.489837 1.15819,6.454347 m -5.496511,-2.96451 4.338321,-3.489837 m -3.951897,-14.052544 6.220641,-0.550987 m -3.614639,5.471225 -2.606002,-4.920238 m 6.220641,-0.550987 -3.614639,5.471225 m 24.15657,7.002016 8.76246,2.054088 m -7.13374,6.333243 -1.62872,-8.387331 m 8.76246,2.054088 -7.13374,6.333243 m 6.00595,-13.155891 -8.80117,-1.881303 m 5.05192,-6.890423 3.74925,8.771726 m -8.80117,-1.881303 5.05192,-6.890423 m -8.70507,26.503554 -7.194347,-3.904022 m 6.018207,-4.558641 1.17614,8.462663 m -7.194347,-3.904022 6.018207,-4.558641 m -4.647751,-20.482537 8.136521,0.892688 m -5.7898,6.283168 -2.346721,-7.175856 m 8.136521,0.892688 -5.7898,6.283168 m 18.18524,-10.660544 10.07301,1.238692 m -7.06638,7.814493 -3.00663,-9.053185 m 10.07301,1.238692 -7.06638,7.814493 m 3.91759,26.511182 -9.06136,-4.570738 m 7.53244,-5.853386 1.52892,10.424124 m -9.06136,-4.570738 7.53244,-5.853386 m 2.35946,-31.688836 -10.11366,-0.844914 m 4.82085,-8.588336 5.29281,9.43325 m -10.11366,-0.844914 4.82085,-8.588336 m -4.78435,55.715794 9.47397,3.639208 m -8.86963,6.191092 -0.60434,-9.8303 m 9.47397,3.639208 -8.86963,6.191092 m -20.760649,-14.594076 7.677249,2.838983 m -7.287335,5.088686 -0.389914,-7.927669 m 7.677249,2.838983 -7.287335,5.088686 m 13.198515,9.467487 -7.66479,-5.85244 m 7.94101,-3.992541 -0.27622,9.844981 m -7.66479,-5.85244 7.94101,-3.992541 m -28.941062,-12.786703 5.215353,3.435127 m -6.537501,2.502202 1.322148,-5.937329 m 5.215353,3.435127 -6.537501,2.502202 m 10.762757,9.41659 -5.896038,-5.12218 m 6.416474,-2.797994 -0.520436,7.920174 m -5.896038,-5.12218 6.416474,-2.797994 M 69.883241,79.967488 73.608058,82.2315 m -4.813661,1.956699 1.088844,-4.220711 m 3.724817,2.264012 -4.813661,1.956699 m 6.055656,7.171288 -3.907295,-4.661873 m 5.026472,-1.317043 -1.119177,5.978916 M 70.942758,86.697614 75.96923,85.380571 M 64.944564,84.040448 63.448251,79.709042 m 3.571003,0.497916 -2.07469,3.83349 m -1.496313,-4.331406 3.571003,0.497916 m 5.995103,-18.976757 -4.199075,1.169524 m 0.09607,-4.357843 4.103003,3.188319 m -4.199075,1.169524 0.09607,-4.357843 m -6.261061,3.644919 3.613333,-2.818489 m -0.346901,4.345072 -3.266432,-1.526583 m 3.613333,-2.818489 -0.346901,4.345072 m 20.129603,-5.631743 -6.238611,-0.282459 m 2.416682,-5.582083 3.821929,5.864542 m -6.238611,-0.282459 2.416682,-5.582083 m -11.763005,2.700218 5.739366,-2.01486 m -2.088989,5.712805 -3.650377,-3.697945 m 5.739366,-2.01486 -2.088989,5.712805 m 29.115249,-6.254312 -8.18305,0.194401 m 2.941068,-7.372262 5.241982,7.177861 m -8.18305,0.194401 2.941068,-7.372262 m -13.168867,1.712853 7.594278,-1.823984 m -3.192579,7.266871 -4.401699,-5.442887 m 7.594278,-1.823984 -3.192579,7.266871 M 102.37616,38.74649 112.007,38.249905 m -5.33588,8.278182 -4.29496,-7.781597 m 9.63084,-0.496585 -5.33588,8.278182 m 1.57296,-15.43779 -9.615228,0.73993 m 3.208758,-8.983545 6.40647,8.243615 m -9.615228,0.73993 3.208758,-8.983545 m -1.41159,87.255618 7.65754,5.86191 m -9.864736,3.41862 2.207196,-9.28053 m 7.65754,5.86191 -9.864736,3.41862 m -15.618308,-18.52894 5.908629,5.10766 m -8.345768,2.3126 2.437139,-7.42026 m 5.908629,5.10766 -8.345768,2.3126 m 10.818866,12.48106 -6.386944,-7.08569 m 8.363774,-2.24663 -1.97683,9.33232 m -6.386944,-7.08569 8.363774,-2.24663 M 68.805884,92.035075 72.43005,96.9203 m -6.989945,0.375147 3.365779,-5.260372 m 3.624166,4.885225 -6.989945,0.375147 m 8.088462,12.016753 -4.700307,-6.39587 m 6.913964,-1.09411 -2.213657,7.48998 m -4.700307,-6.39587 6.913964,-1.09411 m -15.327799,-18.454903 1.885348,4.176775 m -5.518192,-0.741308 3.632844,-3.435467 m 1.885348,4.176775 -5.518192,-0.741308 m 4.1857,10.186584 -2.930602,-5.866136 m 5.564043,0.203542 -2.633441,5.662594 m -2.930602,-5.866136 5.564043,0.203542 m -7.314482,-17.119883 0.313078,3.591936 m -4.248464,-1.71771 3.935386,-1.874226 m 0.313078,3.591936 -4.248464,-1.71771 m 0.827794,9.31184 -0.671318,-5.527145 m 4.152548,1.938128 -3.48123,3.589017 m -0.671318,-5.527145 4.152548,1.938128 m 0.912324,-15.140632 -2.216508,2.843787 m -2.282815,-3.713321 4.499323,0.869534 m -2.216508,2.843787 -2.282815,-3.713321 m -2.761582,8.407962 0.708903,-5.147564 m 3.112826,3.05128 -3.821729,2.096284 m 0.708903,-5.147564 3.112826,3.05128 M 62.9058,57.109502 59.151879,59.73783 m -1.369076,-4.808918 5.122997,2.18059 m -3.753921,2.628328 -1.369076,-4.808918 m -6.421374,6.823502 3.400531,-4.408675 m 1.159394,4.863719 -4.559925,-0.455044 m 3.400531,-4.408675 1.159394,4.863719 M 72.9045,48.84948 67.102233,50.675314 m 0.364887,-6.23433 5.43738,4.408496 m -5.802267,1.825834 0.364887,-6.23433 m -9.839073,6.096805 5.010628,-4.230089 m 0.180775,6.242386 -5.191403,-2.012297 m 5.010628,-4.230089 0.180775,6.242386 m 25.362906,-13.2143 -7.643898,1.60338 m 1.465157,-7.671593 6.178741,6.068213 m -7.643898,1.60338 1.465157,-7.671593 m -13.449148,5.075199 7.115656,-3.516736 m -1.479987,7.668748 -5.635669,-4.152012 m 7.115656,-3.516736 -1.479987,7.668748 m 10.317859,-15.806278 9.070282,-2.954631 m -2.942444,9.074238 -6.127838,-6.119607 m 9.070282,-2.954631 -2.942444,9.074238 m -1.863237,-14.654481 -9.140703,2.729039 m 1.247535,-9.562627 7.893168,6.833588 m -9.140703,2.729039 1.247535,-9.562627 m 0.5659,109.758056 6.176136,7.27017 m -10.342305,1.42713 4.166169,-8.6973 m 6.176136,7.27017 -10.342305,1.42713 m -11.548494,-21.92192 4.900533,6.24378 m -8.839232,0.93164 3.938699,-7.17542 m 4.900533,6.24378 -8.839232,0.93164 m 7.40703,14.42921 -4.505807,-8.75773 m 8.886633,0.16655 -4.380826,8.59118 m -4.505807,-8.75773 8.886633,0.16655 m -18.704406,-26.311703 2.362846,6.116943 m -7.437827,-1.295678 5.074981,-4.821265 m 2.362846,6.116943 -7.437827,-1.295678 m 4.41178,14.536178 -2.551981,-8.15398 m 7.388882,1.55062 -4.836901,6.60336 m -2.551981,-8.15398 7.388882,1.55062 m -10.449509,-25.087977 0.853015,5.502031 m -6.168681,-2.224272 5.315666,-3.277759 m 0.853015,5.502031 -6.168681,-2.224272 m 1.277346,11.940959 -1.255983,-7.444629 m 6.104251,2.395444 -4.848268,5.049185 m -1.255983,-7.444629 6.104251,2.395444 m -1.634479,-22.72973 -1.376312,5.010568 m -4.615407,-3.962074 5.991719,-1.048494 m -1.376312,5.010568 -4.615407,-3.962074 m -2.525996,11.543126 1.09788,-6.913365 m 4.483125,4.111154 -5.581005,2.802211 m 1.09788,-6.913365 4.483125,4.111154 m 5.552606,-23.179197 -2.959326,4.716178 m -3.586112,-5.112711 6.545438,0.396533 m -2.959326,4.716178 -3.586112,-5.112711 m -5.669063,9.960954 3.167089,-6.242559 m 2.875388,5.543656 -6.042477,0.698903 m 3.167089,-6.242559 2.875388,5.543656 M 58.73232,44.07769 53.604373,48.16476 m -1.946433,-6.723938 7.07438,2.636868 m -5.127947,4.08707 -1.946433,-6.723938 m -9.137672,9.36563 4.838676,-5.795443 m 1.640579,6.805035 -6.479255,-1.009592 m 4.838676,-5.795443 1.640579,6.805035 m 21.761812,-21.107133 -6.672753,4.29818 m -1.375962,-8.068874 8.048715,3.770694 m -6.672753,4.29818 -1.375962,-8.068874 m -11.439789,7.859717 6.735972,-5.256112 m 0.223722,8.182298 -6.959694,-2.926186 m 6.735972,-5.256112 0.223722,8.182298 m 5.467246,-18.513547 8.667498,-4.677021 m -1.242879,9.56323 -7.424619,-4.886209 m 8.667498,-4.677021 -1.242879,9.56323 M 66.35027,9.7159447 58.1447,15.162823 M 56.549158,5.1401389 66.35027,9.7159447 M 58.1447,15.162823 56.549158,5.1401389 m 2.847216,123.3370511 5.025242,8.47035 m -10.815806,-0.13553 5.790564,-8.33482 m 5.025242,8.47035 -10.815806,-0.13553 m -7.370559,-25.96321 3.448719,7.81705 m -9.472229,-1.12996 6.02351,-6.68709 m 3.448719,7.81705 -9.472229,-1.12996 m 5.48599,17.39003 -3.232,-10.02766 m 9.343153,1.92496 -6.111153,8.1027 m -3.232,-10.02766 9.343153,1.92496 m -13.754683,-33.216638 0.945113,7.490448 m -7.919659,-3.206093 6.974546,-4.284355 m 0.945113,7.490448 -7.919659,-3.206093 m 2.653762,17.208033 -1.914401,-9.34533 m 8.076968,2.78615 -6.162567,6.55918 m -1.914401,-9.34533 8.076968,2.78615 m -5.68246,-31.139258 -0.784686,6.955885 m -6.599116,-4.410404 7.383802,-2.545481 m -0.784686,6.955885 -6.599116,-4.410404 m -0.362464,15.16884 -0.753675,-8.856183 m 7.056591,3.633804 -6.302916,5.222379 m -0.753675,-8.856183 7.056591,3.633804 m 2.01777,-30.17563 -2.508092,6.535251 m -5.380861,-5.66095 7.888953,-0.874301 m -2.508092,6.535251 -5.380861,-5.66095 m -4.587711,14.645015 2.1701,-8.383954 m 5.20757,5.820755 -7.37767,2.563199 m 2.1701,-8.383954 5.20757,5.820755 m 11.217407,-29.240734 -5.036922,5.624 m -3.300757,-7.490332 8.337679,1.866332 m -5.036922,5.624 -3.300757,-7.490332 m -8.364501,14.127114 3.608839,-8.122578 m 4.24815,6.996653 -7.856989,1.125925 m 3.608839,-8.122578 4.24815,6.996653 m 18.765425,-28.315574 -6.4533,5.599547 m -2.596135,-8.617441 9.049435,3.017894 m -6.4533,5.599547 -2.596135,-8.617441 m -11.066059,12.025606 5.715946,-7.637274 m 2.778024,8.56052 -8.49397,-0.923246 m 5.715946,-7.637274 2.778024,8.56052 m 2.444425,-20.420339 8.267336,-6.5307876 m 0.565743,10.1331076 -8.833079,-3.60232 M 49.916828,9.2313414 50.482571,19.364449 M 40.86362,5.2544301 32.37632,11.496683 M 30.268224,0.7005776 40.86362,5.2544301 M 32.37632,11.496683 30.268224,0.7005776 m 5.444815,130.8722124 4.543122,9.50579 m -11.491038,-0.97781 6.947916,-8.52798 m 4.543122,9.50579 -11.491038,-0.97781 m -8.782232,-3.77124 -1.352126,-11.45302 m 9.648932,4.23062 -8.296806,7.2224 m -1.352126,-11.45302 9.648932,4.23062 m -2.249341,-19.61359 1.307513,9.44936 m -9.79389,-3.88327 8.486377,-5.56609 m 1.307513,9.44936 -9.79389,-3.88327 m -6.873498,-3.70621 -0.9280165,-10.77677 m 8.8159425,4.3908 -7.887926,6.38597 m -0.9280165,-10.77677 8.8159425,4.3908 m 1.246489,-15.721812 -0.516049,8.873199 m -8.386041,-5.164723 8.90209,-3.708476 m -0.516049,8.873199 -8.386041,-5.164723 M 3.8704736,87.192451 5.8392357,76.939455 m 6.9354933,6.549727 -8.9042554,3.703269 M 5.8392357,76.939455 12.774729,83.489182 M 17.593526,67.992374 15.362327,76.36027 M 8.2648679,69.986415 17.593526,67.992374 M 15.362327,76.36027 8.2648679,69.986415 M 3.3737353,63.289359 7.2999681,53.615444 m 5.4563919,7.951587 -9.3826247,1.722328 m 3.9262328,-9.673915 5.4563919,7.951587 m 8.696904,-14.31738 -4.587924,7.612551 m -5.249371,-8.089745 9.837295,0.477194 M 16.86534,54.862202 11.615969,46.772457 M 7.5157211,38.882335 13.046692,29.586723 m 4.317264,9.184844 -9.8482349,0.110768 m 5.5309709,-9.295612 4.317264,9.184844 m 11.562754,-12.880658 -6.331406,7.13536 m -3.97105,-9.339731 10.302456,2.204371 m -6.331406,7.13536 -3.97105,-9.339731 M 16.015662,15.899914 22.605263,6.4353866 M 26.519707,16.715326 16.015662,15.899914 m 6.589601,-9.4645274 3.914444,10.2799394 m 41.229646,58.788475 -3.473456,-4.012922 m 2.512442,1.171012 -2.512442,-1.171012 m 5.824095,-1.070787 -5.824095,1.070787 m 1.938313,-2.019803 -1.938313,2.019803 m -1.985105,5.578557 1.985105,-5.578557 m 0.780336,2.688511 -0.780336,-2.688511 m 1.739889,-5.014394 -1.739889,5.014394 m -0.241115,-2.76148 0.241115,2.76148 m -5.212114,0.999255 5.212114,-0.999255 m -2.270796,1.589694 2.270796,-1.589694 m -3.837599,-4.510198 3.837599,4.510198 m -2.718048,-0.670063 2.718048,0.670063 m 2.512442,1.171012 6.904636,-1.375261 m -2.982406,2.160188 2.982406,-2.160188 m -5.405189,-3.983568 5.405189,3.983568 m -3.592983,-0.866538 3.592983,0.866538 m 3.720637,6.20814 -3.720637,-6.20814 m 3.31917,1.643182 -3.31917,-1.643182 m 7.588363,-0.960055 -7.588363,0.960055 m 2.797522,-2.391092 -2.797522,2.391092 m -3.067228,5.762494 3.067228,-5.762494 m -0.113438,3.694847 0.113438,-3.694847 m 1.115913,-6.65109 -1.115913,6.65109 m -1.886346,-3.188939 1.886343,3.188941 m 3.319173,1.64318 8.764638,-1.385516 m -3.914868,2.601955 3.914868,-2.601955 m -6.609716,-6.368439 6.609716,6.368439 m -4.495445,-1.217721 4.495445,1.217721 m 5.007952,8.853317 -5.007956,-8.853315 m 4.027229,2.369629 -4.027225,-2.369631 m 9.881627,-1.461333 -9.881627,1.461333 m 3.168921,-3.446173 -3.168921,3.446173 m -4.369999,8.15352 4.369999,-8.15352 m -0.03168,4.663683 0.03168,-4.663683 m 2.237066,-9.939848 -2.237066,9.939848 m -1.377573,-4.468623 1.377573,4.468623 m 4.027225,2.369631 12.398282,-2.127654 m -5.600622,3.798517 5.600622,-3.798517 m -9.140274,-8.792648 9.140274,8.792648 m -6.54388,-1.70331 6.54388,1.70331 m 7.98221,10.678747 -7.98221,-10.678747 m 6.35349,2.291416 -6.35349,-2.291416 m 13.98816,-2.477144 -13.98816,2.477144 m 5.18699,-4.358447 -5.18699,4.358447 m -5.660507,11.350662 5.660507,-11.350662 m 0.3577,6.792021 -0.3577,-6.792021 m 3.84647,-12.797828 -3.84647,12.797828 m -1.94333,-6.51466 1.94333,6.51466 m 39.24895,-3.870308 -17.23688,3.56358 m 6.37546,-5.304132 -6.37546,5.304132 m 9.11552,12.848691 -9.11552,-12.848691 m 7.97171,2.375316 -7.97171,-2.375316 m -15.65858,2.598144 15.65858,-2.598144 m -6.89612,4.652232 6.89612,-4.652232 M 112.4412,60.537403 124.21436,71.479545 m -8.02391,-2.170416 8.02391,2.170416 m 4.30285,-15.629784 -4.30285,15.629784 m -2.76353,-7.815291 2.76353,7.815291 m -7.9073,14.125153 7.9073,-14.125153 m -0.37486,8.271767 0.37486,-8.271767 m -6.89612,4.652232 -6.89029,13.691112 m -0.24345,-7.357869 0.24345,7.357869 m -7.86796,-11.244595 7.86796,11.244595 m -6.69182,-2.781932 6.69182,2.781932 m 14.94047,0.352547 -14.94047,-0.352547 m 5.87911,-4.218191 -5.87911,4.218191 m 6.29819,14.352431 -6.29819,-14.352431 m 5.69385,4.522131 -5.69385,-4.522131 m -14.462459,-0.241645 14.462459,0.241645 m -6.78521,2.597338 6.78521,-2.597338 m -8.53882,11.301071 8.53882,-11.301071 m -0.59781,7.30853 0.59781,-7.30853 M 96.601668,75.58479 91.544976,86.042621 m -0.760241,-5.645008 0.760241,5.645008 m -5.799871,-9.834642 5.799871,9.834642 m -4.641681,-3.380295 4.641681,3.380295 m 12.191154,0.998336 -12.191154,-0.998336 m 4.996807,-2.905686 -4.996809,2.905682 m 4.810431,11.466296 -4.810429,-11.466292 m 4.420515,3.538623 -4.420515,-3.538623 m -10.655898,-1.697905 10.655898,1.697905 m -5.440545,1.737222 5.440545,-1.737222 m -7.111327,8.533834 7.111327,-8.533834 m -0.694853,5.73584 0.694853,-5.73584 m -9.683061,-11.89637 -4.118164,7.496114 m -0.330139,-4.147595 0.330139,4.147595 m -4.164214,-6.660888 4.164214,6.660888 m -3.526731,-2.122867 3.526731,2.122867 m 9.159544,1.019961 -9.159544,-1.019961 m 3.663033,-1.944549 -3.663033,1.944549 m 1.823179,8.63968 -1.823179,-8.63968 m 3.145327,2.702351 -3.145327,-2.702351 m -7.86051,-1.674877 7.86051,1.674877 m -4.135693,0.589135 4.135693,-0.589135 m -6.800993,5.055249 6.800993,-5.055249 m -1.774521,3.738206 1.774521,-3.738206 m -7.033182,-8.195547 -2.443868,4.548195 m -0.517348,-2.491212 0.517348,2.491212 m -3.210468,-3.815623 3.210468,3.815623 m -2.370371,-0.935652 2.370371,0.935652 m 5.950319,1.524485 -5.950319,-1.524485 m 2.359046,-0.945889 -2.359046,0.945889 m 0.527696,6.193186 -0.527696,-6.193186 m 1.61654,1.972475 -1.61654,-1.972475 m -4.81845,1.714029 4.81845,-1.714029 m -1.247447,2.211945 1.247447,-2.211945 m -2.052491,-8.523937 1.699377,-4.687345 m 0.374199,2.519331 -0.374199,-2.519331 m -5.159578,0.156258 5.159578,-0.156258 m -1.897801,1.692754 1.897801,-1.692754 m 3.893042,3.31396 -3.893042,-3.31396 m 2.538074,-0.02731 -2.538074,0.02731 m 5.10077,-3.55353 -5.10077,3.55353 m 0.901695,-2.384006 -0.901695,2.384006 m -1.649961,-5.915419 1.649961,5.915419 m -1.996862,-1.570347 1.996862,1.570347 m 8.57691,4.111807 0.971677,-7.829091 m 1.704893,4.10941 -1.704893,-4.10941 m -7.010513,3.689972 7.010513,-3.689972 m -2.653286,3.569093 2.653286,-3.569093 m 6.937036,6.009226 -6.937036,-6.009226 m 4.331034,1.088988 -4.331034,-1.088988 m -8.55082,-3.024565 8.55082,3.024565 m -4.447817,0.163754 4.447817,-0.163754 m 8.584154,-3.484806 -8.584154,3.484806 m 2.345543,-3.767265 -2.345543,3.767265 m -1.261414,-8.66399 1.261414,8.66399 m -3.350403,-2.951185 3.350403,2.951185 m 11.48353,7.031676 3.046335,-10.953953 m 1.069977,5.849455 -1.069977,-5.849455 M 81.793208,62.155435 91.992039,57.14417 m -3.97819,4.460278 3.97819,-4.460278 m 8.266921,8.127443 -8.266921,-8.127443 m 5.9202,0.951587 -5.9202,-0.951587 m -9.76764,-5.427071 9.76764,5.427071 m -5.945711,0.437471 5.945711,-0.437471 m 11.234981,-5.28322 -11.234981,5.28322 m 3.051931,-5.088819 -3.051931,5.088819 m 0.41841,-12.572212 -0.41841,12.572212 m -2.774169,-5.305341 2.774169,5.305341 m 15.397241,10.283656 3.50827,-14.459433 m 1.54365,7.56901 -1.54365,-7.56901 m -12.985311,5.127364 12.985311,-5.127364 m -4.84879,6.020052 4.84879,-6.020052 m 10.55328,10.695861 -10.55328,-10.695861 m 7.54665,1.642676 -7.54665,-1.642676 m 15.30141,-4.905917 -15.30141,4.905917 m 5.18775,-5.750831 -5.18775,5.750831 m -12.912512,-8.285304 12.912512,8.285304 m -7.67053,-1.107443 7.67053,1.107443 m 1.10945,-14.718488 -1.10945,14.718488 m -4.22643,-6.440306 4.22643,6.440306 m -7.25481,39.451834 -8.035167,12.269583 m 0.747832,-7.180897 -0.747832,7.180897 m 13.946347,2.28659 -13.946347,-2.28659 m 6.281557,-3.56585 -6.281556,3.56585 m -4.757451,-12.911349 4.75745,12.911349 m -5.277886,-4.991175 5.277886,4.991175 m 2.611251,14.69302 -2.611251,-14.69302 m 4.818447,5.41249 -4.818447,-5.41249 m -13.007057,-3.83592 13.007057,3.83592 m -7.098428,1.27174 7.098428,-1.27174 m -11.012274,8.97971 11.012274,-8.97971 m -2.6485,6.73308 2.6485,-6.73308 m -9.503142,-16.909967 -7.588604,8.53056 m 1.051103,-6.028358 -1.051103,6.028358 m 11.81386,3.388232 -11.81386,-3.388232 m 5.917822,-1.733948 -5.917822,1.733948 M 75.96923,85.380571 78.515827,96.310403 m -3.665774,-4.950916 3.665774,4.950916 m 1.64755,11.963747 -1.64755,-11.963747 m 4.084689,4.543487 -4.084689,-4.543487 m -9.709943,-4.275328 9.709943,4.275328 M 72.43005,96.9203 78.515827,96.310403 m -9.687567,6.605927 9.687567,-6.605927 m -2.773603,5.511817 2.773603,-5.511817 M 73.608058,82.2315 66.711277,88.122091 m 2.08312,-3.933892 -2.08312,3.933892 m 8.138776,3.237396 -8.138776,-3.237396 m 4.231481,-1.424477 -4.231481,1.424477 m 0.307977,-7.915133 -0.307977,7.915133 m -1.766713,-4.081643 1.766713,4.081643 m -1.271172,9.173356 1.271172,-9.173356 m 2.094607,3.912984 -2.094607,-3.912984 m -6.296852,-4.754774 6.296852,4.754774 m -4.411504,-0.577999 4.411504,0.577999 m -8.674598,3.001141 8.674598,-3.001141 m -3.110555,3.204683 3.110555,-3.204683 m -0.814947,-11.06273 -6.154396,2.688442 m 2.548858,-2.678367 -2.548858,2.678367 m 2.263167,-6.66723 -2.263167,6.66723 m -0.379492,-3.664509 0.379492,3.664509 m 5.20263,4.292645 -5.20263,-4.292645 m 3.706317,-0.03876 -3.706317,0.03876 m -2.960353,7.054981 2.960353,-7.054981 m 0.672491,3.619514 -0.672491,-3.619514 m -3.455694,-5.540912 3.455694,5.540912 m -3.142616,-1.948976 3.142616,1.948976 m -7.234604,0.118009 7.234604,-0.118009 m -3.082056,2.056137 3.082056,-2.056137 M 59.362442,76.083294 56.64865,71.691979 m 2.415133,0.798155 -2.415133,-0.798155 m 4.909199,-0.871163 -4.909199,0.871163 m 1.995132,-1.584048 -1.995132,1.584048 m -4.297796,4.389138 4.297796,-4.389138 m -0.36241,2.514912 0.36241,-2.514912 m 0.923552,-5.028671 -0.923552,5.028671 m -1.292956,-2.184884 1.292955,2.184885 m -5.628449,-2.637808 5.62845,2.637807 m -2.515624,0.413473 2.515624,-0.413473 m 7.386132,-2.96258 -4.642877,-5.294737 m 3.362104,1.505327 -3.362104,-1.505327 m -0.748123,6.673269 0.748123,-6.673269 m 1.046393,3.546019 -1.046393,-3.546019 m 6.52482,-0.221278 -6.52482,0.221278 m 3.258388,-1.747861 -3.258388,1.747861 m -6.319026,2.359112 6.319026,-2.359112 m -1.819703,3.228646 1.819703,-3.228646 m 3.513895,-6.32516 -3.513895,6.32516 m -0.240026,-3.696832 0.240026,3.696832 m -4.629945,-6.090923 4.629945,6.090923 m -3.470551,-1.227204 3.470551,1.227204 m 9.423377,-1.034937 -2.479802,-7.64817 m 2.575874,3.290327 -2.575874,-3.290327 m -3.685187,6.935246 3.685187,-6.935246 m -0.07185,4.116757 0.07185,-4.116757 m 7.776291,3.363707 -7.776291,-3.363707 m 4.125914,-0.334238 -4.125914,0.334238 m -8.552677,0.177357 8.552677,-0.177357 m -3.42968,2.357947 3.42968,-2.357947 m 6.56902,-5.902075 -6.56902,5.902075 m 0.766753,-4.076241 -0.766753,4.076241 M 62.638675,46.3077 66.33548,54.751555 m -3.51603,-2.201469 3.51603,2.201469 m 13.472237,2.547627 -1.153713,-10.548291 m 3.570395,4.966208 -3.570395,-4.966208 m -8.19261,7.666426 8.19261,-7.666426 m -2.453244,5.651566 2.453244,-5.651566 M 89.21787,51.838829 78.654004,46.750891 m 6.162167,-0.354949 -6.162167,0.354949 M 67.46712,44.440984 78.654004,46.750891 M 72.9045,48.84948 78.654004,46.750891 m 9.528352,-7.415105 -9.528352,7.415105 m 1.884454,-5.811725 -1.884454,5.811725 m -2.983881,-11.924855 2.983881,11.924855 m -4.463868,-4.256107 4.463868,4.256107 m 16.389966,5.30446 0.229412,-13.940087 m 2.711656,6.567825 -2.711656,-6.567825 m -10.457211,8.280678 10.457211,-8.280678 m -2.862933,6.456694 2.862933,-6.456694 m 11.397738,8.412823 -11.397738,-8.412823 m 7.102778,0.631226 -7.102778,-0.631226 m 12.970698,-7.024967 -12.970698,7.024967 m 3.35547,-6.285037 -3.35547,6.285037 m -13.269767,-4.847691 13.269767,4.847691 m -7.091026,1.220522 7.091026,-1.220522 m -1.695105,-14.381389 1.695105,14.381389 m -4.637549,-5.307151 4.637549,5.307151 m -6.764237,67.846286 -10.831066,9.06811 m 2.485298,-6.75551 -2.485298,6.75551 m 13.304164,5.72555 -13.304164,-5.72555 m 6.91722,-1.36014 -6.91722,1.36014 m -1.935855,-13.20744 1.935855,13.20744 m -4.149512,-5.71746 4.149512,5.71746 m -0.39892,14.74574 0.39892,-14.74574 m 3.767249,6.04844 -3.767249,-6.04844 m -11.947414,-7.17618 11.947414,7.17618 m -7.046881,-0.9324 7.046881,0.9324 m -12.98489,5.67072 12.98489,-5.67072 m -4.098257,5.83727 4.098257,-5.83727 M 72.43005,96.9203 l -9.585609,5.74506 m 2.595664,-5.369913 -2.595664,5.369913 m 10.684126,6.64684 -10.684126,-6.64684 m 5.983819,0.25097 -5.983819,-0.25097 m 0.756281,-11.338586 -0.756281,11.338586 m -1.87716,-5.675992 1.87716,5.675992 m -1.052475,12.36354 1.052475,-12.36354 m 2.886224,5.18812 -2.886224,-5.18812 m -7.969025,-8.110133 7.969025,8.110133 m -5.606179,-1.99319 5.606179,1.99319 m -11.184207,3.09333 11.184207,-3.09333 m -3.795325,4.64395 3.795325,-4.64395 m -0.544668,-15.121268 -8.823997,2.541682 m 3.305805,-3.28299 -3.305805,3.28299 m 7.491505,6.903594 -7.491505,-6.903594 m 4.560903,1.037458 -4.560903,-1.037458 m 3.184102,-8.281834 -3.184102,8.281834 m -0.297128,-4.692817 0.297128,4.692817 m -3.675341,9.290718 3.675341,-9.290718 m 1.39964,4.469453 -1.39964,-4.469453 m -4.876169,-7.864441 4.876169,7.864441 m -4.023154,-2.36241 4.023154,2.36241 m -10.170472,-0.09035 10.170472,0.09035 m -4.066221,2.305092 4.06622,-2.305094 m 3.123543,-12.286945 -7.848656,0.277883 m 3.600192,-1.995593 -3.600191,1.995595 m 4.427985,7.316245 -4.427986,-7.316247 m 3.756668,1.789102 -3.756668,-1.789102 m 5.382364,-5.971258 -5.382364,5.971258 m 1.560635,-3.874974 -1.560635,3.874974 m -5.466721,7.422382 5.466721,-7.422382 m -0.151055,4.144623 0.151055,-4.144623 m -0.975586,-8.415574 0.975586,8.415574 m -2.351898,-3.405006 2.351898,3.405006 m -8.395421,-2.737319 8.395421,2.737319 m -3.912296,1.373835 3.912296,-1.373835 m 6.605032,-8.569615 -6.701244,-4.223716 m 4.418429,0.510395 -4.418429,-0.510395 m 1.656847,8.918357 -1.656847,-8.918357 m 2.36575,3.770793 -2.36575,-3.770793 m 7.266904,-3.075921 -7.266904,3.075921 m 2.706979,-3.530965 -2.706979,3.530965 m -6.871093,5.426251 6.871093,-5.426251 m -0.879374,4.377757 0.879374,-4.377757 m 1.736522,-9.012031 -1.736522,9.012031 m -1.222804,-4.295853 1.222804,4.295853 m -7.31089,-5.690169 7.31089,5.690169 m -4.435502,-0.146513 4.435502,0.146513 M 59.151879,59.73783 53.569876,52.839413 m 4.212927,2.089499 -4.212927,-2.089499 m -2.208447,8.913001 2.208447,-8.913001 m 1.192084,4.504326 -1.192084,-4.504326 m 9.249574,-0.289327 -9.249574,0.289327 m 4.058171,-2.301624 -4.058171,2.301624 m -9.724342,3.035402 9.724342,-3.035402 m -3.178904,3.431935 3.178904,-3.431935 m 5.162444,-8.761723 -5.162444,8.761723 m 0.0345,-4.674653 -0.0345,4.674653 m -6.210932,-7.828404 6.210932,7.828404 m -4.570353,-1.023369 4.570353,1.023369 M 67.102233,50.675314 63.241665,40.602185 m 4.225455,3.838799 -4.225455,-3.838799 m -5.613618,9.935604 5.613618,-9.935604 m -0.60299,5.705515 0.60299,-5.705515 m 10.948471,1.892599 -10.948471,-1.892599 m 5.312802,-2.259413 -5.312802,2.259413 M 51.65794,41.440822 63.241665,40.602185 m -4.509345,3.475505 4.509345,-3.475505 m 7.51967,-9.893274 -7.51967,9.893274 m 0.846917,-5.595094 -0.846917,5.595094 m -5.232862,-11.060363 5.232862,11.060363 m -5.00914,-2.878065 5.00914,2.878065 m 17.296793,0.336981 -3.188387,-13.180068 m 4.653544,5.508475 -4.653544,-5.508475 m -8.795604,10.583674 8.795604,-10.583674 m -1.679948,7.066938 1.679948,-7.066938 m 13.285762,5.049015 -13.285762,-5.049015 m 7.157924,-1.070592 -7.157924,1.070592 m 11.422525,-9.605466 -11.422525,9.605466 m 2.281822,-6.876427 -2.281822,6.876427 M 62.71262,26.938217 77.350071,27.759098 m -6.588736,2.949813 6.588736,-2.949813 m -4.982802,-13.225546 4.982802,13.225546 m -6.225681,-3.662316 6.225681,3.662316 m -6.718873,86.338162 -13.626277,7.0188 m 4.787045,-6.08716 -4.787045,6.08716 m 12.194075,8.34205 -12.194075,-8.34205 m 7.688268,-0.41568 -7.688268,0.41568 m 2.044195,-13.80675 -2.044195,13.80675 m -2.792706,-7.20339 2.792706,7.20339 m -3.399111,15.69595 3.399111,-15.69595 m 2.391453,7.36113 -2.391453,-7.36113 m -10.76967,-10.26726 10.76967,10.26726 m -7.320951,-2.45021 7.320951,2.45021 m -14.53919,3.7822 14.53919,-3.7822 m -5.196037,5.70716 5.196037,-5.70716 m 0.233341,-20.44389 -12.185669,3.51275 m 4.747842,-4.808428 -4.747842,4.808428 m 9.159622,9.72775 -9.159622,-9.72775 m 6.607641,1.57377 -6.607641,-1.57377 m 4.356962,-11.794054 -4.356962,11.794054 m -0.491306,-6.744869 0.491306,6.744869 m -4.840852,13.35097 4.840852,-13.35097 m 1.182658,6.66388 -1.182658,-6.66388 m -6.998392,-10.578338 6.998392,10.578338 m -6.053279,-3.08789 6.053279,3.08789 m -13.233577,1.56872 13.233577,-1.56872 m -5.156609,4.35487 5.156609,-4.35487 m 4.400029,-16.461556 -11.412399,0.106443 m 5.243718,-2.330715 -5.243718,2.330715 m 6.521064,9.610244 -6.521064,-9.610244 m 5.265081,2.165615 -5.265081,-2.165615 m 6.798143,-8.379262 -6.798143,8.379262 m 1.217138,-5.577051 -1.217138,5.577051 m -6.960568,10.06113 6.960568,-10.06113 m 0.01398,5.776775 -0.01398,-5.776775 m -3.826699,-10.429275 3.826699,10.429275 m -4.611385,-3.47339 4.611385,3.47339 m -12.32664,-1.571137 12.32664,1.571137 m -5.270049,2.062667 5.270049,-2.062667 M 46.398764,74.671704 35.66495,71.409989 M 41.783357,70.70963 35.66495,71.409989 M 39.257361,82.252756 35.66495,71.409989 m 4.690291,3.929402 -4.690291,-3.929402 m 8.553998,-6.273123 -8.553998,6.273123 m 2.511521,-5.57422 -2.511521,5.57422 m -8.835228,8.536024 8.835228,-8.536024 m -1.451426,5.990543 1.451426,-5.990543 M 34.787944,59.716844 35.66495,71.409989 m -3.385098,-5.157894 3.385098,5.157894 m -11.18357,-4.557783 11.18357,4.557783 m -5.976,1.262972 5.976,-1.262972 M 47.431646,60.987526 37.993793,54.662002 m 5.851741,1.212813 -5.851741,-1.212813 m 0.182678,11.173767 -0.182678,-11.173767 m 3.349767,4.931208 -3.349767,-4.931208 m 11.00573,-2.845958 -11.00573,2.845958 m 4.526475,-3.85555 -4.526475,3.85555 m -11.094802,5.929143 11.094802,-5.929143 m -3.205849,5.054842 3.205849,-5.054842 m 2.912564,-11.229775 -2.912564,11.229775 m -2.124358,-5.605775 2.124358,5.605775 m -10.180777,-7.091571 10.180777,7.091571 m -5.932627,-0.09492 5.932627,0.09492 m 15.61058,-6.497242 -8.035207,-9.671204 m 6.088774,2.947266 -6.088774,-2.947266 m -3.048898,12.312896 3.048898,-12.312896 m 1.789778,6.517453 -1.789778,-6.517453 M 58.232525,37.72412 45.569166,38.493556 m 5.703665,-3.695622 -5.703665,3.695622 m -13.000488,3.072339 13.000488,-3.072339 m -4.662809,4.938671 4.662809,-4.938671 M 50.826591,26.25151 45.569166,38.493556 m -1.195875,-6.642499 1.195875,6.642499 m -9.142123,-10.871608 9.142123,10.871608 m -6.364099,-2.311088 6.364099,2.311088 M 64.088582,35.007091 57.073655,22.354959 m 5.638965,4.583258 -5.638965,-4.583258 m -5.800824,12.442975 5.800824,-12.442975 m 0.935148,7.186863 -0.935148,-7.186863 M 71.12439,24.096782 57.073655,22.354959 m 6.626116,-3.144386 -6.626116,3.144386 M 66.35027,9.7159447 57.073655,22.354959 m 1.071045,-7.192136 -1.071045,7.192136 m -15.296499,0.878657 15.296499,-0.878657 m -6.247064,3.896551 6.247064,-3.896551 M 49.916828,9.2313414 57.073655,22.354959 m -6.591084,-2.99051 6.591084,2.99051 m -7.389685,96.310891 -15.365413,4.72894 m 5.893184,-5.8589 -5.893184,5.8589 m 11.379174,11.53113 -11.379174,-11.53113 m 8.147174,1.50347 -8.147174,-1.50347 m 5.577427,-14.855 -5.577427,14.855 m -0.58514,-8.29582 0.58514,8.29582 m -5.553434,16.70598 5.553434,-16.70598 m 1.394482,8.178 -1.394482,-8.178 m -15.687792,1.48172 15.687792,-1.48172 m -6.03886,5.71234 6.03886,-5.71234 m -8.288201,-13.90125 8.288201,13.90125 m -6.980688,-4.45189 6.980688,4.45189 m 4.680757,-22.29776 -13.678534,1.19413 m 5.758875,-4.400223 -5.758875,4.400223 m 8.412637,12.80781 -8.412637,-12.80781 m 6.498236,3.46248 -6.498236,-3.46248 M 32.770174,89.892474 25.32078,102.29116 m 1.146478,-7.176307 -1.146478,7.176307 m -7.776801,12.76847 7.776801,-12.76847 m 0.709576,7.20238 -0.709576,-7.20238 M 9.7424645,100.57665 25.32078,102.29116 m -6.762373,2.67629 6.762373,-2.67629 M 19.804896,89.245638 25.32078,102.29116 m -6.031933,-4.172323 6.031933,4.172323 m 8.108058,-17.934743 -13.559003,-2.33511 m 6.959887,-2.075294 -6.959887,2.075294 m 6.597423,13.093546 -6.597423,-13.093546 m 5.843748,4.237363 -5.843748,-4.237363 m 9.819115,-9.348346 -9.819115,9.348346 m 2.441445,-6.785147 -2.441445,6.785147 m -8.967029,10.932807 8.967029,-10.932807 m -0.06494,7.224331 0.06494,-7.224331 M 5.8392357,76.939455 19.869835,82.021307 m -7.095106,1.467875 7.095106,-1.467875 m -2.276309,-14.028933 2.276309,14.028933 m -4.507508,-5.661037 4.507508,5.661037 M 32.279852,66.252095 19.875231,61.325485 m 7.02376,-0.73434 -7.02376,0.73434 M 22.31128,75.23616 19.875231,61.325485 m 4.606149,5.526721 -4.606149,-5.526721 m 12.185935,-6.758401 -12.185935,6.758401 m 4.328946,-5.632476 -4.328946,5.632476 m -11.6103631,8.66093 11.6103631,-8.66093 m -2.281705,6.666889 2.281705,-6.666889 M 7.2999681,53.615444 19.875231,61.325485 m -7.118871,0.241546 7.118871,-0.241546 m 1.578033,-14.075834 -1.578033,14.075834 m -3.009891,-6.463283 3.009891,6.463283 M 35.869435,49.056227 24.934477,40.381346 m 7.634201,1.184549 -7.634201,-1.184549 m -0.7303,15.311663 0.7303,-15.311663 m 2.878539,7.189085 -2.878539,-7.189085 m 14.27059,-4.198878 -14.27059,4.198878 m 5.77662,-5.122124 -5.77662,5.122124 m -13.318508,6.391111 13.318508,-6.391111 m -3.481213,6.868305 3.481213,-6.868305 M 13.046692,29.586723 24.934477,40.381346 m -7.570521,-1.609779 7.570521,1.609779 M 28.92671,25.890909 24.934477,40.381346 m -2.339173,-7.355077 2.339173,7.355077 M 44.373291,31.851057 34.3036,19.58483 M 41.777156,23.233616 34.3036,19.58483 M 30.711097,35.259222 34.3036,19.58483 M 36.427043,27.621948 34.3036,19.58483 M 50.482571,19.364449 34.3036,19.58483 M 41.649492,15.762129 34.3036,19.58483 M 40.86362,5.2544301 34.3036,19.58483 M 32.37632,11.496683 34.3036,19.58483 M 18.624254,23.686538 34.3036,19.58483 M 28.92671,25.890909 34.3036,19.58483 M 22.605263,6.4353866 34.3036,19.58483 M 26.519707,16.715326 34.3036,19.58483 m 27.254249,51.235986 -2.494066,1.669318 m 2.941318,0.590439 0.285691,3.988863 m 2.765441,-2.890046 2.69312,1.324411 m 2.350639,-5.083709 -3.311653,2.241799 m -0.772553,-6.185406 0.198424,2.994591 m -5.775912,-2.490395 3.596484,1.748718 m 59.804718,11.021913 9.49038,4.576924 m -30.76989,-5.749942 7.62451,3.886726 m -24.439395,-6.257041 5.03963,4.189634 M 73.579537,74.981477 77.413612,77.49477 M 71.806629,68.097691 68.287786,67.303062 M 84.39921,67.075673 79.167067,65.175857 m 21.091893,0.09576 -7.196944,-2.277988 m 28.388814,0.670629 -9.00963,-3.126851 m -2.61106,36.594016 6.896,7.043901 M 90.850123,91.778461 96.355405,97.508913 M 75.96923,85.380571 l 3.5977,4.901474 m -12.547676,-10.075087 1.775143,3.981241 m -2.877672,-20.974815 -3.162719,1.7266 m 11.357765,-6.824722 -5.200417,-0.07338 m 20.306516,-6.203053 -6.993471,-0.12173 m 24.446721,-5.189012 -8.686082,-1.844998 m -5.025965,66.739801 5.259751,7.95994 m -22.4766,-17.56061 4.421153,6.45193 m -16.562655,-16.947376 1.839383,5.968673 m -8.780227,-15.491507 0.121703,4.998844 m -2.648555,-14.697332 -1.782172,3.975665 m 3.5705,-13.873659 -2.848475,3.586316 m 9.746571,-13.243688 -5.036647,2.378826 m 16.407333,-12.434128 -6.723016,1.9462 m 23.168713,-11.632871 -8.632218,0.45946 m -8.423793,87.599357 3.699337,8.90847 m -18.230043,-22.46609 2.74285,7.71959 m -12.382411,-22.638034 0.39088,6.985626 m -4.962069,-19.925947 -1.554425,6.048547 m 0.935007,-20.362226 -2.435591,5.572764 m 7.216166,-18.893586 -5.153989,4.058771 M 58.232525,37.72412 51.65794,41.440822 m 19.46645,-17.34404 -8.41177,2.841435 m -10.903736,99.885003 1.796926,9.98879 m -13.709826,-28.27222 0.315757,8.9961 M 32.770174,89.892474 31.079655,97.890937 M 29.68895,72.672961 26.829722,79.946013 m 5.231444,-25.378929 -5.162175,6.024061 m 12.306076,-24.408677 -6.636389,5.383427 m 17.913893,-22.201446 -8.705415,3.869167 m -13.497459,105.873514 0.485426,10.99364 m -10.206716,-35.13332 -1.014428,10.09218 m -4.76925,-31.570448 -1.871923,9.464932 M 12.75636,61.567031 8.2648679,69.986415 m 9.0990881,-31.214848 -5.747987,8.00089 m 14.903738,-30.057131 -7.895453,6.971212 m 62.657084,46.640037 -4.269193,2.603237 m 18.646265,-2.846849 -5.854402,3.830964 m 26.386442,-4.604798 -7.63467,4.76856 m 23.63029,-0.222828 9.26517,-5.938896 m -25.32944,26.429055 9.24662,-4.169584 m -29.402929,-0.594192 7.770639,-2.540287 m -22.847052,-2.696241 6.014217,-1.68239 m -17.020054,-2.694838 4.333779,-0.44799 m -1.202663,-18.289297 -2.562696,3.526218 m 15.594667,-7.174778 -4.25312,4.573794 M 103.22702,51.86095 97.912239,58.095757 m 28.286721,-10.033281 -7.75476,6.548593 m -18.01818,55.491231 9.1279,-3.1259 m -26.953404,-6.12251 7.729171,-1.155255 m -21.523803,-7.66356 6.044169,-0.675588 m -14.435628,-7.99217 4.530139,0.673131 m -8.658324,-9.833557 3.076202,1.876403 m -1.79024,-9.419986 1.07158,3.444623 M 62.9058,57.109502 62.650293,61.686801 M 72.9045,48.84948 70.461394,54.417317 m 17.720962,-15.081531 -3.366185,7.060156 m 23.427909,-15.305645 -5.86792,7.656193 m -20.930832,82.33161 9.536915,-0.32289 m -25.251578,-12.90173 7.797902,1.45872 m -18.653151,-14.756973 6.091865,2.434141 m -12.367674,-14.768035 4.579041,3.171624 m -5.403572,-15.731821 2.536219,4.540601 m 0.07968,-17.930389 0.970457,5.481066 M 58.73232,44.07769 57.628047,50.537789 m 13.133288,-19.828878 -2.206868,7.633861 m 20.218129,-20.18914 -4.264601,8.534874 m -25.111621,101.788684 9.802622,0.98092 m -22.963745,-18.60931 7.976964,3.06387 m -16.158014,-20.306088 6.507086,3.833469 m -10.347763,-20.039519 5.043837,4.852224 m -4.469417,-22.535912 3.388527,6.118925 m 2.729886,-22.403542 1.613911,7.374225 m 8.306323,-24.554942 0.44624,8.546424 M 66.35027,9.7159447 63.699771,19.210573 m -27.986732,112.362217 9.984692,3.35313 m -19.667375,-25.43238 7.703061,5.60543 M 19.804896,89.245638 26.467258,95.114853 M 17.593526,67.992374 22.31128,75.23616 m -0.858016,-27.986509 2.750913,8.443358 m 4.722533,-29.8021 1.784387,9.368313 M 40.86362,5.2544301 41.649492,15.762129 m 74.657568,69.842569 1.01118,-9.472921 m -20.776457,7.005158 0.05989,-7.552145 m -15.194884,4.113026 0.455131,-5.551565 m -11.236168,2.902873 0.08482,-3.602306 m 4.098319,-8.811278 1.681609,4.259998 m 11.523352,-7.29109 0.931855,6.493675 m 17.103056,-9.109678 1.34052,8.439381 m 21.12793,-11.578065 2.07261,10.325652 m -28.70069,34.948547 1.75361,-8.703733 m -19.209091,2.156228 1.670782,-6.796612 M 70.942758,86.697614 73.608058,82.2315 M 63.448251,79.709042 65.89633,77.059361 m 0.367296,-18.191049 2.551656,3.531413 m 7.385478,-9.997268 3.606957,4.896725 m 12.602732,-12.727224 2.633521,7.483393 m 16.96303,-13.805446 4.0783,8.967657 m -31.490001,66.451958 3.913846,-7.70797 M 68.82826,102.91633 72.43005,96.9203 m -14.393371,-5.797068 4.263094,-3.57914 m -9.792443,-7.67828 4.091988,-2.066985 M 51.0202,69.054172 55.355694,69.507095 M 54.76196,57.343739 59.151879,59.73783 m 3.486796,-13.43013 4.463558,4.367614 m 8.56789,-15.849278 4.868335,6.11313 m 13.039819,-17.205291 5.050575,8.096352 m -33.935663,88.870153 5.938009,-6.60312 m -18.970964,-8.33857 5.578028,-5.08652 M 43.305304,89.995422 49.452622,87.723364 M 40.355241,75.339391 46.398764,74.671704 M 41.34356,59.59321 l 6.088086,1.394316 m -0.0727,-15.976517 6.245429,3.153751 m 4.40443,-18.622938 6.079779,5.465269 m 8.278687,-20.473539 7.264624,6.349119 M 42.465731,124.89826 49.68397,118.66585 m -17.864954,-12.91221 7.180298,-4.65661 M 25.713583,86.25867 33.428838,84.356417 M 24.48138,66.852206 32.279852,66.252095 m -4.466836,-18.681664 8.056419,1.485796 m 0.557608,-21.434279 7.946248,4.229109 M 49.916828,9.2313414 58.1447,15.162823 M 27.337869,118.9429 18.630765,124.87651 M 19.288847,98.118837 9.7424645,100.57665 M 15.362327,76.36027 5.8392357,76.939455 M 16.86534,54.862202 7.2999681,53.615444 M 22.595304,33.026269 13.046692,29.586723 M 22.605263,6.4353866 32.37632,11.496683" />
  </g>
</svg>
